<svg id="visual" viewBox="0 0 900 600" width="900" height="600" xmlns="http://www.w3.org/2000/svg" xmlns:xlink="http://www.w3.org/1999/xlink" version="1.1"><rect x="0" y="0" width="900" height="600" fill="#FFFFFF"></rect><path d="M0 449L21.5 451.7C43 454.3 86 459.7 128.8 462.3C171.7 465 214.3 465 257.2 462.2C300 459.3 343 453.7 385.8 453C428.7 452.3 471.3 456.7 514.2 459.7C557 462.7 600 464.3 642.8 462.3C685.7 460.3 728.3 454.7 771.2 457.8C814 461 857 473 878.5 479L900 485L900 601L878.5 601C857 601 814 601 771.2 601C728.3 601 685.7 601 642.8 601C600 601 557 601 514.2 601C471.3 601 428.7 601 385.8 601C343 601 300 601 257.2 601C214.3 601 171.7 601 128.8 601C86 601 43 601 21.5 601L0 601Z" fill="#cadb8c"></path><path d="M0 430L21.5 439.5C43 449 86 468 128.8 477.5C171.7 487 214.3 487 257.2 481.2C300 475.3 343 463.7 385.8 455.2C428.7 446.7 471.3 441.3 514.2 443.2C557 445 600 454 642.8 454.7C685.7 455.3 728.3 447.7 771.2 455.2C814 462.7 857 485.3 878.5 496.7L900 508L900 601L878.5 601C857 601 814 601 771.2 601C728.3 601 685.7 601 642.8 601C600 601 557 601 514.2 601C471.3 601 428.7 601 385.8 601C343 601 300 601 257.2 601C214.3 601 171.7 601 128.8 601C86 601 43 601 21.5 601L0 601Z" fill="#cbb760"></path><path d="M0 509L21.5 501.8C43 494.7 86 480.3 128.8 478.8C171.7 477.3 214.3 488.7 257.2 496.7C300 504.7 343 509.3 385.8 510.2C428.7 511 471.3 508 514.2 507.3C557 506.7 600 508.3 642.8 504.3C685.7 500.3 728.3 490.7 771.2 481.7C814 472.7 857 464.3 878.5 460.2L900 456L900 601L878.5 601C857 601 814 601 771.2 601C728.3 601 685.7 601 642.8 601C600 601 557 601 514.2 601C471.3 601 428.7 601 385.8 601C343 601 300 601 257.2 601C214.3 601 171.7 601 128.8 601C86 601 43 601 21.5 601L0 601Z" fill="#cb9042"></path><path d="M0 489L21.5 500.3C43 511.7 86 534.3 128.8 536.2C171.7 538 214.3 519 257.2 510.7C300 502.3 343 504.7 385.8 505.2C428.7 505.7 471.3 504.3 514.2 513.5C557 522.7 600 542.3 642.8 543.2C685.7 544 728.3 526 771.2 515.3C814 504.7 857 501.3 878.5 499.7L900 498L900 601L878.5 601C857 601 814 601 771.2 601C728.3 601 685.7 601 642.8 601C600 601 557 601 514.2 601C471.3 601 428.7 601 385.8 601C343 601 300 601 257.2 601C214.3 601 171.7 601 128.8 601C86 601 43 601 21.5 601L0 601Z" fill="#c66635"></path><path d="M0 557L21.5 553.2C43 549.3 86 541.7 128.8 546.3C171.7 551 214.3 568 257.2 571.2C300 574.3 343 563.7 385.8 554.5C428.7 545.3 471.3 537.7 514.2 535.5C557 533.3 600 536.7 642.8 546.2C685.7 555.7 728.3 571.3 771.2 573.8C814 576.3 857 565.7 878.5 560.3L900 555L900 601L878.5 601C857 601 814 601 771.2 601C728.3 601 685.7 601 642.8 601C600 601 557 601 514.2 601C471.3 601 428.7 601 385.8 601C343 601 300 601 257.2 601C214.3 601 171.7 601 128.8 601C86 601 43 601 21.5 601L0 601Z" fill="#bb3737"></path></svg>