<svg id="visual" viewBox="0 0 900 600" width="900" height="600" xmlns="http://www.w3.org/2000/svg" xmlns:xlink="http://www.w3.org/1999/xlink" version="1.1"><rect x="0" y="0" width="900" height="600" fill="#FFFFFF"></rect><path d="M0 462L21.5 453.2C43 444.3 86 426.7 128.8 415.2C171.7 403.7 214.3 398.3 257.2 397.8C300 397.3 343 401.7 385.8 412.8C428.7 424 471.3 442 514.2 437.8C557 433.7 600 407.3 642.8 401.7C685.7 396 728.3 411 771.2 418C814 425 857 424 878.5 423.5L900 423L900 601L878.5 601C857 601 814 601 771.2 601C728.3 601 685.7 601 642.8 601C600 601 557 601 514.2 601C471.3 601 428.7 601 385.8 601C343 601 300 601 257.2 601C214.3 601 171.7 601 128.8 601C86 601 43 601 21.5 601L0 601Z" fill="#cadb8c"></path><path d="M0 452L21.5 456.5C43 461 86 470 128.8 475.2C171.7 480.3 214.3 481.7 257.2 486.8C300 492 343 501 385.8 494.2C428.7 487.3 471.3 464.7 514.2 454.7C557 444.7 600 447.3 642.8 449.5C685.7 451.7 728.3 453.3 771.2 448.7C814 444 857 433 878.5 427.5L900 422L900 601L878.5 601C857 601 814 601 771.2 601C728.3 601 685.7 601 642.8 601C600 601 557 601 514.2 601C471.3 601 428.7 601 385.8 601C343 601 300 601 257.2 601C214.3 601 171.7 601 128.8 601C86 601 43 601 21.5 601L0 601Z" fill="#cbb760"></path><path d="M0 453L21.5 458C43 463 86 473 128.8 487.2C171.7 501.3 214.3 519.7 257.2 520.5C300 521.3 343 504.7 385.8 491.8C428.7 479 471.3 470 514.2 469.8C557 469.7 600 478.3 642.8 488.3C685.7 498.3 728.3 509.7 771.2 511.8C814 514 857 507 878.5 503.5L900 500L900 601L878.5 601C857 601 814 601 771.2 601C728.3 601 685.7 601 642.8 601C600 601 557 601 514.2 601C471.3 601 428.7 601 385.8 601C343 601 300 601 257.2 601C214.3 601 171.7 601 128.8 601C86 601 43 601 21.5 601L0 601Z" fill="#cb9042"></path><path d="M0 533L21.5 531.5C43 530 86 527 128.8 524.8C171.7 522.7 214.3 521.3 257.2 516.8C300 512.3 343 504.7 385.8 506.5C428.7 508.3 471.3 519.7 514.2 522.5C557 525.3 600 519.7 642.8 516.2C685.7 512.7 728.3 511.3 771.2 511.8C814 512.3 857 514.7 878.5 515.8L900 517L900 601L878.5 601C857 601 814 601 771.2 601C728.3 601 685.7 601 642.8 601C600 601 557 601 514.2 601C471.3 601 428.7 601 385.8 601C343 601 300 601 257.2 601C214.3 601 171.7 601 128.8 601C86 601 43 601 21.5 601L0 601Z" fill="#c66635"></path><path d="M0 554L21.5 558C43 562 86 570 128.8 567.2C171.7 564.3 214.3 550.7 257.2 546.3C300 542 343 547 385.8 553.5C428.7 560 471.3 568 514.2 567.5C557 567 600 558 642.8 558C685.7 558 728.3 567 771.2 572.2C814 577.3 857 578.7 878.5 579.3L900 580L900 601L878.5 601C857 601 814 601 771.2 601C728.3 601 685.7 601 642.8 601C600 601 557 601 514.2 601C471.3 601 428.7 601 385.8 601C343 601 300 601 257.2 601C214.3 601 171.7 601 128.8 601C86 601 43 601 21.5 601L0 601Z" fill="#bb3737"></path></svg>