<svg id="visual" viewBox="0 0 900 600" width="900" height="600" xmlns="http://www.w3.org/2000/svg" xmlns:xlink="http://www.w3.org/1999/xlink" version="1.1"><path d="M0 473L13.7 475.8C27.3 478.7 54.7 484.3 82 483.7C109.3 483 136.7 476 163.8 467.7C191 459.3 218 449.7 245.2 452.5C272.3 455.3 299.7 470.7 327 471.5C354.3 472.3 381.7 458.7 409 452.8C436.3 447 463.7 449 491 452.3C518.3 455.7 545.7 460.3 573 465.7C600.3 471 627.7 477 654.8 480.8C682 484.7 709 486.3 736.2 483.7C763.3 481 790.7 474 818 472C845.3 470 872.7 473 886.3 474.5L900 476L900 601L886.3 601C872.7 601 845.3 601 818 601C790.7 601 763.3 601 736.2 601C709 601 682 601 654.8 601C627.7 601 600.3 601 573 601C545.7 601 518.3 601 491 601C463.7 601 436.3 601 409 601C381.7 601 354.3 601 327 601C299.7 601 272.3 601 245.2 601C218 601 191 601 163.8 601C136.7 601 109.3 601 82 601C54.7 601 27.3 601 13.7 601L0 601Z" fill="#e2e58e"></path><path d="M0 477L13.7 474.5C27.3 472 54.7 467 82 464.3C109.3 461.7 136.7 461.3 163.8 464.3C191 467.3 218 473.7 245.2 474.7C272.3 475.7 299.7 471.3 327 474.3C354.3 477.3 381.7 487.7 409 490.3C436.3 493 463.7 488 491 490.7C518.3 493.3 545.7 503.7 573 501.7C600.3 499.7 627.7 485.3 654.8 482.5C682 479.7 709 488.3 736.2 489C763.3 489.7 790.7 482.3 818 481.7C845.3 481 872.7 487 886.3 490L900 493L900 601L886.3 601C872.7 601 845.3 601 818 601C790.7 601 763.3 601 736.2 601C709 601 682 601 654.8 601C627.7 601 600.3 601 573 601C545.7 601 518.3 601 491 601C463.7 601 436.3 601 409 601C381.7 601 354.3 601 327 601C299.7 601 272.3 601 245.2 601C218 601 191 601 163.8 601C136.7 601 109.3 601 82 601C54.7 601 27.3 601 13.7 601L0 601Z" fill="#d9b961"></path><path d="M0 519L13.7 516C27.3 513 54.7 507 82 506.2C109.3 505.3 136.7 509.7 163.8 509.5C191 509.3 218 504.7 245.2 507.2C272.3 509.7 299.7 519.3 327 523.3C354.3 527.3 381.7 525.7 409 527C436.3 528.3 463.7 532.7 491 527.5C518.3 522.3 545.7 507.7 573 502.2C600.3 496.7 627.7 500.3 654.8 504.5C682 508.7 709 513.3 736.2 513.3C763.3 513.3 790.7 508.7 818 511.7C845.3 514.7 872.7 525.3 886.3 530.7L900 536L900 601L886.3 601C872.7 601 845.3 601 818 601C790.7 601 763.3 601 736.2 601C709 601 682 601 654.8 601C627.7 601 600.3 601 573 601C545.7 601 518.3 601 491 601C463.7 601 436.3 601 409 601C381.7 601 354.3 601 327 601C299.7 601 272.3 601 245.2 601C218 601 191 601 163.8 601C136.7 601 109.3 601 82 601C54.7 601 27.3 601 13.7 601L0 601Z" fill="#ce8c40"></path><path d="M0 559L13.7 559.7C27.3 560.3 54.7 561.7 82 555.3C109.3 549 136.7 535 163.8 527.8C191 520.7 218 520.3 245.2 522C272.3 523.7 299.7 527.3 327 528.3C354.3 529.3 381.7 527.7 409 527.2C436.3 526.7 463.7 527.3 491 530.5C518.3 533.7 545.7 539.3 573 544C600.3 548.7 627.7 552.3 654.8 551.2C682 550 709 544 736.2 541.3C763.3 538.7 790.7 539.3 818 537C845.3 534.7 872.7 529.3 886.3 526.7L900 524L900 601L886.3 601C872.7 601 845.3 601 818 601C790.7 601 763.3 601 736.2 601C709 601 682 601 654.8 601C627.7 601 600.3 601 573 601C545.7 601 518.3 601 491 601C463.7 601 436.3 601 409 601C381.7 601 354.3 601 327 601C299.7 601 272.3 601 245.2 601C218 601 191 601 163.8 601C136.7 601 109.3 601 82 601C54.7 601 27.3 601 13.7 601L0 601Z" fill="#be5d2e"></path><path d="M0 585L13.7 582.2C27.3 579.3 54.7 573.7 82 572.2C109.3 570.7 136.7 573.3 163.8 575.5C191 577.7 218 579.3 245.2 581.5C272.3 583.7 299.7 586.3 327 581.5C354.3 576.7 381.7 564.3 409 563.2C436.3 562 463.7 572 491 576.7C518.3 581.3 545.7 580.7 573 575.8C600.3 571 627.7 562 654.8 561.2C682 560.3 709 567.7 736.2 568.5C763.3 569.3 790.7 563.7 818 562.7C845.3 561.7 872.7 565.3 886.3 567.2L900 569L900 601L886.3 601C872.7 601 845.3 601 818 601C790.7 601 763.3 601 736.2 601C709 601 682 601 654.8 601C627.7 601 600.3 601 573 601C545.7 601 518.3 601 491 601C463.7 601 436.3 601 409 601C381.7 601 354.3 601 327 601C299.7 601 272.3 601 245.2 601C218 601 191 601 163.8 601C136.7 601 109.3 601 82 601C54.7 601 27.3 601 13.7 601L0 601Z" fill="#a92828"></path></svg>