<?xml version="1.0" encoding="UTF-8"?>
<svg id="Capa_2" data-name="Capa 2" xmlns="http://www.w3.org/2000/svg" xmlns:xlink="http://www.w3.org/1999/xlink" viewBox="0 0 293.91 281.52">
  <defs>
    <style>
      .cls-1 {
        fill: url(#Degradado_sin_nombre_17);
      }

      .cls-1, .cls-2, .cls-3, .cls-4 {
        stroke-width: 0px;
      }

      .cls-2 {
        fill: url(#Degradado_sin_nombre_17-2);
      }

      .cls-3 {
        fill: #a8e8d2;
      }

      .cls-4 {
        fill: #36315c;
      }
    </style>
    <radialGradient id="Degradado_sin_nombre_17" data-name="Degradado sin nombre 17" cx="144.2" cy="128.35" fx="144.2" fy="128.35" r="98.81" gradientUnits="userSpaceOnUse">
      <stop offset=".19" stop-color="#a8e8d2"/>
      <stop offset=".35" stop-color="#8bbab7"/>
      <stop offset=".57" stop-color="#667d93"/>
      <stop offset=".76" stop-color="#4b5179"/>
      <stop offset=".91" stop-color="#3a3668"/>
      <stop offset="1" stop-color="#342c63"/>
    </radialGradient>
    <radialGradient id="Degradado_sin_nombre_17-2" data-name="Degradado sin nombre 17" cx="105.2" cy="37.35" fx="105.2" fy="37.35" r="98.81" gradientTransform="translate(253.92 190.52) rotate(-180)" xlink:href="#Degradado_sin_nombre_17"/>
  </defs>
  <g id="Capa_10" data-name="Capa 10">
    <path class="cls-1" d="M229.2,68.26s-18-20-22-25c-2.79-3.49-6-21-14-24s-22.82-.2-30,1c-6,1-15,3-17-2S138.11-2.17,127.2.26c-9,2-19,28-25,33-3,2-3,12-42,10-34,0-37,33-35,40s13,28,6,36-17,76,55,71c23-4,40.81-21.69,40.81-21.69,0,0-17.13-13.63-12.81-36.31,4-21,28-25,28-25,0,0,3.02-23.04,6-30s11-18,24-20c25-3,57,11,57,11Z"/>
    <path class="cls-2" d="M63.72,213.26s18,20,22,25c2.79,3.49,6,21,14,24s22.82.2,30-1c6-1,15-3,17,2s8.09,20.43,19,18c9-2,19-28,25-33,3-2,3-12,42-10,34,0,37-33,35-40s-13-28-6-36c7-8,17-76-55-71-23,4-40.81,21.69-40.81,21.69,0,0,17.13,13.63,12.81,36.31-4,21-28,25-28,25,0,0-3.02,23.04-6,30s-11,18-24,20c-25,3-57-11-57-11Z"/>
    <path class="cls-3" d="M50.2,203.26s-9-9-12-10-7-3-16-3c-9.91.74-15.13,4.16-17.56,6.58s-5.44,10.42-4.44,15.42,6,12,13,11,8.85-5.6,12.43-10.3,5.57-7.7,10.57-8.7,14-1,14-1Z"/>
    <path class="cls-3" d="M57.8,214.95s-9.2-1.09-11.27-.31-5.14,1.45-9.82,5.54c-4.77,4.93-5.76,9.26-5.8,11.76s2.43,8.47,5.46,10.89,9.16,4.18,12.29.43,1.77-7.25,1.26-11.57.27-7.43,1.11-9.81c1.15-3.25,6.76-6.93,6.76-6.93Z"/>
    <path class="cls-4" d="M243.21,78.16s8.02,9.88,10.9,11.19,6.65,3.71,15.6,4.64c9.94.29,15.48-2.57,18.15-4.73s6.48-9.8,6.01-14.88-4.73-12.56-11.79-12.28-9.38,4.66-13.42,8.96-6.46,7.21-11.42,7.56-14.03-.45-14.03-.45Z"/>
    <path class="cls-4" d="M236.86,65.75s9.04,2.04,11.17,1.47,5.27-.91,10.34-4.49c5.26-4.41,6.68-8.62,6.99-11.1s-1.54-8.67-4.31-11.4-8.68-5.11-12.18-1.7-2.51,7.02-2.45,11.38-.21,6.35-2.11,9.64c-1.72,2.99-7.44,6.2-7.44,6.2Z"/>
  </g>
</svg>