<?xml version="1.0" encoding="UTF-8"?>
<svg id="Capa_2" data-name="Capa 2" xmlns="http://www.w3.org/2000/svg" viewBox="0 0 612 792">
  <defs>
    <style>
      .cls-1 {
        fill: #94c126;
      }

      .cls-2 {
        fill: #ad1f18;
      }
    </style>
  </defs>
  <path class="cls-2" d="M394.86,247.83l-.02,.04c-.56,1.59-2.77,1.69-3.47,.16-1.12-2.47-2.42-4.86-3.86-7.16-3.19-5.1-7.16-9.72-11.81-13.7-5.52-4.72-11.98-8.51-19.24-11.05-.55-.19-1.11-.37-1.65-.55-.43-.16-.86-.33-1.3-.48-5.9-2.07-11.95-2.81-17.82-2.37-.05,0-.1,0-.15,0-2.69,.19-5.35,.65-7.94,1.33-9.08,2.39-17.3,7.64-23.29,15.09-4.02,5-9.85,8.21-16.21,8.97-.27,.03-.55,.06-.82,.1-3.14,.44-6.2,1.27-9.09,2.48-2.61,1.06-5.09,2.44-7.4,4.09-6.09,4.31-10.93,10.49-13.58,18.07-2.07,5.9-2.56,11.98-1.7,17.76,.07,.52,.16,1.04,.26,1.56,.74,3.96-1.05,8.01-4.66,9.81-11.58,5.78-25.39,7.04-38.59,2.42-1.31-.46-4.17-1.62-4.17-1.62-24.88-6.54-40.91-31.38-36.22-56.68,1.61-8.64,5.17-16.19,10.15-22.4,2.96-3.69,6.4-6.91,10.2-9.58,2.85-2,4.98-4.85,6.14-8.12l.04-.12v-.03c.63-1.78,.73-3.69,.36-5.54-.91-4.53-.99-9.27-.14-14,.35-1.91,.86-3.82,1.52-5.7,6.82-19.47,28.14-29.71,47.59-22.89l.13,.05c4.94,1.76,9.28,4.43,12.9,7.78,.8,.74,1.72,1.34,2.74,1.69h0c16.53,5.79,34.19,1.2,45.87-10.34,.43-.43,.85-.86,1.26-1.31,1.21-1.31,2.54-2.52,4.11-3.36,3.91-2.13,8.67-2.65,13.21-1.06,4.08,1.43,7.24,4.32,9.08,7.87,1.02,1.94,1.18,5.38,1.06,8.4-.27,7.1,3.59,13.86,10.12,16.64,.4,.17,.82,.33,1.24,.48,1.37,.48,2.76,.81,4.14,.98,1.58,.2,3.15,.21,4.69,.04,2.4,.22,4.81,.73,7.19,1.56,11.04,3.86,18.34,13.53,19.64,24.41,0,0-1.6,8.41-1.19,12.47,.42,4.28,1.67,8.4,3.65,12.15,1.52,2.86,5.34,15.07,6.45,16.75,.56,.83,.88,1.81,.94,2.82,0,.69-.1,1.39-.34,2.07Z"/>
  <path class="cls-1" d="M192.53,302.03l.02-.04c.56-1.59,2.77-1.69,3.47-.16,1.12,2.47,2.42,4.86,3.86,7.16,3.19,5.1,7.16,9.72,11.81,13.7,5.52,4.72,11.98,8.51,19.24,11.05,.55,.19,1.11,.37,1.65,.55,.43,.16,.86,.33,1.3,.48,5.9,2.07,11.95,2.81,17.82,2.37,.05-.02,.1,0,.15,0,2.69-.19,5.35-.65,7.94-1.33,9.08-2.39,17.3-7.64,23.29-15.09,4.02-5,9.85-8.21,16.21-8.97,.27-.03,.55-.06,.82-.1,3.14-.44,6.2-1.27,9.09-2.48,2.61-1.06,5.09-2.44,7.4-4.09,6.09-4.31,10.93-10.49,13.58-18.07,2.07-5.9,2.56-11.98,1.7-17.76-.07-.52-.16-1.04-.26-1.56-.74-3.96,1.05-8.01,4.66-9.81,11.58-5.78,25.39-7.04,38.59-2.42,1.31,.46,4.17,1.62,4.17,1.62,24.88,6.54,40.91,31.38,36.22,56.68-1.61,8.64-5.17,16.19-10.15,22.4-2.96,3.69-6.4,6.91-10.2,9.58-2.85,2-4.98,4.85-6.14,8.12l-.04,.12v.03c-.63,1.78-.73,3.69-.36,5.54,.91,4.53,.99,9.27,.14,14-.35,1.91-.86,3.82-1.52,5.7-6.82,19.47-28.14,29.71-47.59,22.89l-.13-.05c-4.94-1.76-9.28-4.43-12.9-7.78-.8-.74-1.72-1.34-2.74-1.69h0c-16.53-5.79-34.19-1.2-45.87,10.34-.43,.43-.85,.86-1.26,1.31-1.21,1.31-2.54,2.52-4.11,3.36-3.91,2.13-8.67,2.65-13.21,1.06-4.08-1.43-7.24-4.32-9.08-7.87-1.02-1.94-1.18-5.38-1.06-8.4,.27-7.1-3.59-13.86-10.12-16.64-.4-.17-.82-.33-1.24-.48-1.37-.48-2.76-.81-4.14-.98-1.58-.2-3.15-.21-4.69-.04-2.4-.22-4.81-.73-7.19-1.56-11.04-3.86-18.34-13.53-19.64-24.41,0,0,1.6-8.41,1.19-12.47-.42-4.28-1.67-8.4-3.65-12.15-1.52-2.86-5.34-15.07-6.45-16.75-.56-.83-.88-1.81-.94-2.82,0-.69,.1-1.39,.34-2.07Z"/>
  <path class="cls-2" d="M434.41,231.35c-.77,2.22-2.38,3.91-4.35,4.85-1.01,.48-1.98,1.02-2.88,1.7-1.85,1.38-4.47,2.73-7.49,3.76-6.45,2.21-12.31,2.13-13.08-.16-.33-.97,.3-2.19,1.62-3.41,1.31-1.23,3.32-2.49,5.74-3.58,.14-.06,.34-.19,.56-.36,1.37-1.02,2.48-2.4,3.03-4.02,.54-1.6,.54-3.1,.61-3.52,.77-4.76,6.19-7.58,10.79-6.13,4.57,1.44,7.01,6.38,5.44,10.87Z"/>
  <path class="cls-2" d="M402.57,259.74c.62-1.73,1.89-3.14,3.48-4.03,4.34-2.44,15.3-7.62,25.82-4.51,9.34,2.76,14.61,7.97,16.97,10.93,1.04,1.31,1.63,2.91,1.69,4.58,.09,2.59,0,6.78-1.19,9.87-1.85,4.82-6.49,10.26-10.51,10.58-2.04,.16-4.37-.61-6.17-1.41-1.82-.81-3.25-2.3-4.02-4.14-1.2-2.87-3.35-7.49-5.69-10.22-3.58-4.18-4.31-5.91-10.55-7.66-6.24-1.74-9.87-.9-10.08-2.48-.06-.44,.05-.97,.24-1.51Z"/>
  <path class="cls-1" d="M185.61,300.02c-.54-1.75-1.75-3.21-3.31-4.18-4.23-2.63-14.96-8.27-25.6-5.61-9.45,2.36-14.94,7.34-17.42,10.2-1.1,1.26-1.75,2.84-1.88,4.51-.19,2.59-.28,6.77,.77,9.91,1.64,4.89,6.03,10.53,10.05,11.03,2.03,.25,4.4-.42,6.23-1.15,1.86-.73,3.34-2.16,4.19-3.97,1.32-2.82,3.66-7.34,6.12-9.97,3.76-4.02,4.56-5.73,10.87-7.2,6.31-1.48,9.9-.48,10.17-2.05,.07-.44-.02-.97-.19-1.52Z"/>
  <g>
    <g>
      <path class="cls-1" d="M129.42,578.51c-1.97-4.39-8.58-2.92-11.78-1.2-2.63,1.41,4.03,5.46,7.7,8.7,3.58,3.16,7,3.83,8.5,1.51,1.52-2.3-3.01-5.89-4.42-9.02Z"/>
      <path class="cls-1" d="M96.94,543.49c4.07-15.35,28.67-21.74,41.35-14.76,7.41,4.02,10.67,13.09,8.14,21.02-3.95,12.62-19.48,20.21-30.82,24.71-1.19,.5-1.53,1.06-1.62,2.32-.43,5.64-.32,13-1.89,18.36-.76,2.39-7.83,16.43-11.81,13.85-4.06-2.63-.38-12.18-1.1-16.53-.86-5.16-1.52-10.5-2.07-15.73-.7-7.2-2.07-19.56-1.45-26.47,.16-2.14,.73-4.64,1.28-6.76Zm19.53,15.75c25.16-7.42,10.99-17.65,.27-11.15l-.27,11.15Z"/>
    </g>
    <g>
      <path class="cls-1" d="M181.2,574.7c-1.18-.01-1.5,.18-2.17,1.31-2.52,4.3-7.75,12.35-10.8,16.18-4.49,5.74-14.13,2-10.58-4.15,1.37-2.38,4.19-9.72,5.07-12.02-2.89-.71-5.88-1.45-5.75-5.56,.3-7.34,9.55-2.52,12.28-7.14,6.16-10.34,11.79-20.52,20.15-29.01,4.62-4.74,10.96-4.12,14.39,1.97,4.11,7.46,3.21,18.42,5.2,26.64,3.6,.58,12.37,.25,12.01,5.96-.11,2.59-1.52,4.18-3.82,4.5-1.79,.26-5.83,.39-7.28,1.23,.31,5.88,2.63,15.97-4.96,17.4-2.7,.49-5.41-1.28-6.46-4-1.62-4.18-2.23-8.79-3.47-13.03-4.61-.01-9.22-.14-13.83-.28Zm13.09-11.31c-.4-2.42-.69-4.83-1.08-7.27l-.29-.04c-1.77,2.42-3.55,4.96-5.23,7.51,2.16-.11,4.43-.2,6.6-.21Z"/>
      <path class="cls-1" d="M176.43,591.09c-4.26,1.99-3.02,9.15-1.46,12.63,1.28,2.87,5.34-4.18,8.55-8.03,3.13-3.76,3.86-7.41,1.67-9.11-2.18-1.68-5.73,3.08-8.76,4.51Z"/>
    </g>
    <g>
      <path class="cls-1" d="M261.23,563.98c-3.15-1.91-5.79,3.26-6.58,6.47-.66,2.64,4.72,1.4,8.16,1.43,3.36,.04,5.42-1.61,5.07-4.2-.35-2.59-4.42-2.34-6.65-3.7Z"/>
      <path class="cls-1" d="M279.21,591.11c-.03,1.74,2.85,12.71-.46,16.48-5.63,5.74-5.83-7.52-14.4-6.94-9.33,.63-12.32-.03-20.07-1.49-7.47-1.47-11.81-6.37-12.55-14.72-.89-9.42-3.47-45.74,.27-53.13,3.47-6.92,11.11-3.6,12.76,3.06,3.09,12.67,3.01,25.57,4.46,38.42,.27,2.44,2.24,4.22,4.46,4.04,10.18-.82,25.53-.37,25.52,14.27Z"/>
    </g>
    <g>
      <path class="cls-1" d="M347.6,572.71c1.9-3.63-2.8-7.06-5.76-8.19-2.43-.91-1.49,5.53-1.66,9.62-.17,4,1.28,6.55,3.72,6.26,2.42-.27,2.34-5.1,3.7-7.69Z"/>
      <path class="cls-1" d="M376.89,600.71c-2.05,8.63-16.1,8.35-17.67-3.47-1.75-12.55,.12-25.57,.56-38.28,.13-3.82-2.63-7.03-6.09-7.06-1.42-.01-7.27,.7-8.48,.06-6.51-3.37,.61-11.46,6.07-14.13,9.69-4.82,23.4-8.72,34.04-7.87,13.66,1.1,18.52,29.68,4.96,15.92-1.28-1.3-3.13-1.64-4.77-1-.05,.01-.09,.03-.14,.06-3.3,1.27-5.54,4.67-5.53,8.53,.09,15.62,.4,33.21-2.95,47.26Z"/>
    </g>
    <g>
      <path class="cls-1" d="M411.04,574.33c1.31-3.94-3.86-6.43-6.96-6.96-2.54-.44-.61,5.74-.13,9.8,.46,3.97,2.29,6.2,4.64,5.45,2.35-.74,1.52-5.49,2.45-8.29Z"/>
      <path class="cls-1" d="M444.28,596.34c-.67,8.9-14.56,11.29-17.95-.06-3.69-12.02-3.88-25.2-5.43-37.83-.46-3.79-3.69-6.43-7.11-5.8-1.4,.26-7.04,2.08-8.36,1.67-6.94-2.09-1.2-11.4,3.78-15.08,8.81-6.59,21.7-13.04,32.32-14.22,13.65-1.52,22.9,25.71,7.38,14.73-1.47-1.04-3.34-1.02-4.86-.08l-.12,.07c-3.06,1.88-4.74,5.65-4.11,9.45,2.53,15.4,5.59,32.65,4.47,47.15Z"/>
    </g>
    <g>
      <path class="cls-1" d="M335.75,556.91c-.82-4.2-6.38-4.23-9.24-3.36-2.36,.71,2.28,5.54,4.65,9.09,2.32,3.46,4.94,4.72,6.56,3,1.61-1.72-1.39-5.73-1.97-8.73Z"/>
      <path class="cls-1" d="M307.34,554.78c3.27-.49,6.74-.97,9.85-.74,.86,.06,1.67,.47,2.27,1.17,10.81,12.78,9.19,19.38,.73,17.21-4.19-1.07-8.67,.79-13,1.19-1.79,.17-3.12,1.87-3.05,3.84h0c.09,2.01,1.62,3.59,3.45,3.5,12.75-.61,33.87-7.02,27.52,17.92-.86,9.9-3.71,9.15-5.64,5.83-7.35-12.63-38.81,4.39-43.28-15.35-3.89-17.29-1.56-34.8,.45-52.1,.26-2.22,.75-3.57,2.55-4.79,8.8-5.5,36.32-3.03,40.6,7.17,5.77,13.75-8.24,8.8-16.1,7.99-1.26-.13-3.34-1.54-4.98-1.51-2.53,.04-4.9,1.11-5.16,3.89v1.19c.03,2.2,1.8,3.89,3.78,3.6Z"/>
    </g>
    <g>
      <path class="cls-1" d="M514.07,556.91c-.82-4.2-6.38-4.23-9.24-3.36-2.36,.71,2.28,5.54,4.65,9.09,2.32,3.46,4.94,4.72,6.56,3,1.61-1.72-1.4-5.73-1.97-8.73Z"/>
      <path class="cls-1" d="M485.65,554.78c3.27-.49,6.74-.97,9.85-.74,.86,.06,1.67,.47,2.27,1.17,10.81,12.78,9.19,19.38,.73,17.21-4.19-1.07-8.67,.79-13,1.19-1.79,.17-3.12,1.87-3.05,3.84h0c.09,2.01,1.62,3.59,3.45,3.5,12.75-.61,33.87-7.02,27.52,17.92-.86,9.9-3.71,9.15-5.64,5.83-7.35-12.63-38.81,4.39-43.28-15.35-3.89-17.29-1.56-34.8,.45-52.1,.26-2.22,.75-3.57,2.55-4.79,8.8-5.5,36.32-3.03,40.6,7.17,5.77,13.75-8.24,8.8-16.1,7.99-1.26-.13-3.34-1.54-4.98-1.51-2.53,.04-4.9,1.11-5.16,3.89v1.19c.03,2.2,1.79,3.89,3.78,3.6Z"/>
    </g>
  </g>
  <g>
    <g>
      <path class="cls-2" d="M212.09,462.61c-.88-4.11-6.35-3.99-9.14-3.07-2.3,.76,2.35,5.39,4.76,8.81,2.35,3.33,4.95,4.49,6.5,2.77,1.55-1.72-1.48-5.59-2.11-8.51Z"/>
      <path class="cls-2" d="M191.24,497.39c-3.49,1.06-7.3,1.96-10.71,3.27-4.17-4.06-7.9,6.96-12.98,8.15-1.21,.29-2.52-.18-3.3-1.25-2.55-3.53,.45-11.49,2.77-16.5,.68-1.49,.8-2.23,.66-3.86-.75-7.93-1.06-16.04-.71-24.03,.24-5.13,2.11-14.15,5.12-18.21,3.23-4.3,5.55-1.32,8.02-2.17,18.33-6.55,31.58,6.48,13.6,21.87,20.07,7.84,15.73,27.07-2.48,32.72Zm-12.08-13.25c13.07-1.26,14.16-11.15,.45-11.23-.16,3.75-.38,7.5-.45,11.23Zm1.75-25.11c10.39-2.11,7.34-10.34,1.19-7.37-.31,1.64-1.03,5.73-1.19,7.37Z"/>
    </g>
    <g>
      <path class="cls-2" d="M250.7,479.66c1.61,3.07,5.98,1.51,8.02,.02,1.68-1.22-3.08-3.7-5.76-5.81-2.63-2.06-4.97-2.29-5.83-.49-.86,1.81,2.42,4.1,3.57,6.28Z"/>
      <path class="cls-2" d="M256.15,491.82c2.8,5.4,1.9,21.02-7.4,8.31-3.41-4.65-13.31-12.41-16.05-17.71l-.36,.3c-1.83,5.69-1.67,12.82-4.33,18.11-.96,1.91-3.07,6.72-6,6.28-3.41-.52-4.71-7.71-4.66-11.35,.05-10.84,4.61-37.28,8.95-46.95,3.82-8.77,16.5-9.53,23.37-6.28,6.32,2.99,10.1,10.32,6.78,17.56-2.2,4.8-7.65,9.44-11.99,13.04-1.08,.9-1.2,2.64-.25,3.7,4.27,4.85,8.79,8.88,11.93,14.99Zm-14.34-31.95c3.02-3.28,2.32-7.73-1.18-7.42-.93,.08-1.69,.9-1.91,1.9l-.66,3.17c-.49,2.4,2.16,4.06,3.75,2.34Z"/>
    </g>
    <g>
      <path class="cls-2" d="M319.14,498.11c-1.91-4.08-7.38-.51-9.96,2.28-2.13,2.29,3.69,4.6,6.94,6.94,3.19,2.28,6.09,1.96,7.23-.95,1.13-2.91-2.86-5.38-4.2-8.28Z"/>
      <path class="cls-2" d="M308.77,452.72c3.19,14.25,1.19,39.94-3.31,45.83-9.01,11.79-31.55,1.4-39.52-20.91-5-13.98,2.82-30.63,11.59-29.3,2.89,.42,4.58,2.99,4.63,6.95,.06,4.31-1.66,10.21-2.21,15.25-2.32,21.44,11.76,16.81,14.2-.84,.25-1.95,.03-3.97-.38-13.73-.41-12.5,12.76-13.21,15.01-3.25Z"/>
    </g>
    <g>
      <path class="cls-2" d="M362.35,479.42c.48,3.47,5,3.78,7.37,3.23,1.95-.44-1.61-4.64-3.37-7.64-1.73-2.94-3.81-4.1-5.2-2.79-1.39,1.3,.87,4.73,1.21,7.2Z"/>
      <path class="cls-2" d="M339.07,462.44c5.24,3.98,10.97,6.33,15.82,11.07,5.5,5.43,7.93,13.6,3.55,20.79-2.29,3.81-5.71,7.28-9.81,7.54-6.4,.4-9.31-4.75-12.27-1.51-5.1,5.55-8.21,7.96-8.48-8.37-.14-8.25,6.12-10.09,13.13-8.65,2.44,.55,7.94,.13,3.21-3.26-5.63-4.12-12.78-7.52-17.23-13.1-12.54-15.82,15.92-33.5,31.27-30.9,12.66,2.13,8.02,12.94,3.79,27.29-.53,1.8-.54,3.72-2.48,4.67-2.79,1.36-9.35-4.22-11.29-11.87-.26-1.04-1.18-1.66-2.12-1.33-4.61,1.6-11.38,4.36-7.08,7.64Z"/>
    </g>
    <g>
      <path class="cls-2" d="M378.2,487.36c1.8-2.52-.84-6.04-2.66-7.45-1.5-1.15-1.8,4.08-2.52,7.27-.69,3.12-.1,5.37,1.57,5.57,1.67,.22,2.32-3.59,3.61-5.39Z"/>
      <path class="cls-2" d="M399.05,475.84c-1.07,.09-1.88,1.12-1.82,2.29,.32,7,2.39,21.51,1.6,24.58-.48,1.85-2.09,3.08-3.92,3.42-1.92,.26-3.68-.71-4.79-2.3-1.51-2.38-4.1-18.46-5.11-24.83-.16-1.04-.71-2.67-1.95-1.8h-.01c-5.96,5-10.12-1.7-1.82-8.82h0c.23-.13,.48-.23,.72-.34,.78-.32,1.28-1.15,1.27-2.05-.03-6.7-.73-18.27,1.89-23.43,1.92-3.69,6.64-3.87,8.79-.24,2.49,4.42,1.97,14.11,2.63,20.27,.12,1.15,1.03,1.98,2.08,1.92,2.97-.17,5.95-.29,8.96-.43,.91-.03,1.7-.75,1.9-1.74,1.08-5.66,1.71-11.13,3.54-16.82,1.28-4.05,2.9-7.66,7.77-7.21,3.03,.36,5.11,2.66,5.58,5.65,.94,6.17,.14,13.13,.21,19.3,.06,10.66,.6,21.59,.1,32.26-.74,13.57-17.05,21.71-18.79,1.72-.58-6.63-.35-13.22-.29-19.75,.02-1.27-.97-2.3-2.13-2.2-2.16,.17-4.26,.35-6.4,.53Z"/>
    </g>
  </g>
</svg>